<mxfile host="" modified="2021-01-25T14:30:03.446Z" agent="5.0 (Windows NT 6.2; Win64; x64) AppleWebKit/537.36 (KHTML, like Gecko) Chrome/81.0.4044.113 Safari/537.36" etag="t4lngemt019-kpM8PGzC" version="13.7.9" type="embed"><diagram id="C5RBs43oDa-KdzZeNtuy" name="Page-1"><mxGraphModel dx="821" dy="487" grid="1" gridSize="10" guides="1" tooltips="1" connect="1" arrows="1" fold="1" page="1" pageScale="1" pageWidth="827" pageHeight="1169" math="0" shadow="0"><root><mxCell id="WIyWlLk6GJQsqaUBKTNV-0"/><mxCell id="WIyWlLk6GJQsqaUBKTNV-1" parent="WIyWlLk6GJQsqaUBKTNV-0"/><mxCell id="7dbB2nxjPek2u6hRPhPS-47" value="" style="endArrow=none;shadow=0;strokeWidth=1;rounded=0;endFill=0;edgeStyle=elbowEdgeStyle;elbow=vertical;entryX=1;entryY=0.5;entryDx=0;entryDy=0;exitX=0;exitY=0.5;exitDx=0;exitDy=0;" parent="WIyWlLk6GJQsqaUBKTNV-1" source="7dbB2nxjPek2u6hRPhPS-40" target="zkfFHV4jXpPFQw0GAbJ--20" edge="1"><mxGeometry x="0.5" y="41" relative="1" as="geometry"><mxPoint x="508" y="258" as="sourcePoint"/><mxPoint x="508" y="350" as="targetPoint"/><mxPoint x="-40" y="32" as="offset"/></mxGeometry></mxCell><mxCell id="7dbB2nxjPek2u6hRPhPS-48" value="0..N" style="resizable=0;align=left;verticalAlign=bottom;labelBackgroundColor=none;fontSize=12;" parent="7dbB2nxjPek2u6hRPhPS-47" connectable="0" vertex="1"><mxGeometry x="-1" relative="1" as="geometry"><mxPoint x="-150" y="-11" as="offset"/></mxGeometry></mxCell><mxCell id="7dbB2nxjPek2u6hRPhPS-49" value="1" style="resizable=0;align=right;verticalAlign=bottom;labelBackgroundColor=none;fontSize=12;" parent="7dbB2nxjPek2u6hRPhPS-47" connectable="0" vertex="1"><mxGeometry x="1" relative="1" as="geometry"><mxPoint x="142" y="9" as="offset"/></mxGeometry></mxCell><mxCell id="7dbB2nxjPek2u6hRPhPS-72" value="" style="endArrow=none;shadow=0;strokeWidth=1;rounded=0;endFill=0;edgeStyle=elbowEdgeStyle;elbow=vertical;entryX=0.873;entryY=-0.006;entryDx=0;entryDy=0;exitX=0.583;exitY=1.038;exitDx=0;exitDy=0;entryPerimeter=0;exitPerimeter=0;" parent="WIyWlLk6GJQsqaUBKTNV-1" source="7dbB2nxjPek2u6hRPhPS-46" target="7dbB2nxjPek2u6hRPhPS-4" edge="1"><mxGeometry x="0.5" y="41" relative="1" as="geometry"><mxPoint x="740" y="171" as="sourcePoint"/><mxPoint x="588" y="141" as="targetPoint"/><mxPoint x="-40" y="32" as="offset"/></mxGeometry></mxCell><mxCell id="7dbB2nxjPek2u6hRPhPS-73" value="0..N" style="resizable=0;align=left;verticalAlign=bottom;labelBackgroundColor=none;fontSize=12;" parent="7dbB2nxjPek2u6hRPhPS-72" connectable="0" vertex="1"><mxGeometry x="-1" relative="1" as="geometry"><mxPoint x="-243.28" y="77.01" as="offset"/></mxGeometry></mxCell><mxCell id="7dbB2nxjPek2u6hRPhPS-74" value="1" style="resizable=0;align=right;verticalAlign=bottom;labelBackgroundColor=none;fontSize=12;" parent="7dbB2nxjPek2u6hRPhPS-72" connectable="0" vertex="1"><mxGeometry x="1" relative="1" as="geometry"><mxPoint x="262" y="-67.71" as="offset"/></mxGeometry></mxCell><mxCell id="7dbB2nxjPek2u6hRPhPS-37" value="Vote" style="swimlane;fontStyle=0;align=center;verticalAlign=top;childLayout=stackLayout;horizontal=1;startSize=26;horizontalStack=0;resizeParent=1;resizeLast=0;collapsible=1;marginBottom=0;rounded=0;shadow=0;strokeWidth=1;" parent="WIyWlLk6GJQsqaUBKTNV-1" vertex="1"><mxGeometry x="730" y="70" width="160" height="182" as="geometry"><mxRectangle x="550" y="140" width="160" height="26" as="alternateBounds"/></mxGeometry></mxCell><mxCell id="7dbB2nxjPek2u6hRPhPS-38" value="voteID: long" style="text;align=left;verticalAlign=top;spacingLeft=4;spacingRight=4;overflow=hidden;rotatable=0;points=[[0,0.5],[1,0.5]];portConstraint=eastwest;" parent="7dbB2nxjPek2u6hRPhPS-37" vertex="1"><mxGeometry y="26" width="160" height="26" as="geometry"/></mxCell><mxCell id="7dbB2nxjPek2u6hRPhPS-39" value="vote: int" style="text;align=left;verticalAlign=top;spacingLeft=4;spacingRight=4;overflow=hidden;rotatable=0;points=[[0,0.5],[1,0.5]];portConstraint=eastwest;rounded=0;shadow=0;html=0;" parent="7dbB2nxjPek2u6hRPhPS-37" vertex="1"><mxGeometry y="52" width="160" height="26" as="geometry"/></mxCell><mxCell id="7dbB2nxjPek2u6hRPhPS-40" value="user: User" style="text;align=left;verticalAlign=top;spacingLeft=4;spacingRight=4;overflow=hidden;rotatable=0;points=[[0,0.5],[1,0.5]];portConstraint=eastwest;rounded=0;shadow=0;html=0;" parent="7dbB2nxjPek2u6hRPhPS-37" vertex="1"><mxGeometry y="78" width="160" height="26" as="geometry"/></mxCell><mxCell id="7dbB2nxjPek2u6hRPhPS-41" value="creationDate: Date" style="text;align=left;verticalAlign=top;spacingLeft=4;spacingRight=4;overflow=hidden;rotatable=0;points=[[0,0.5],[1,0.5]];portConstraint=eastwest;rounded=0;shadow=0;html=0;" parent="7dbB2nxjPek2u6hRPhPS-37" vertex="1"><mxGeometry y="104" width="160" height="26" as="geometry"/></mxCell><mxCell id="7dbB2nxjPek2u6hRPhPS-45" value="comment: Comment" style="text;align=left;verticalAlign=top;spacingLeft=4;spacingRight=4;overflow=hidden;rotatable=0;points=[[0,0.5],[1,0.5]];portConstraint=eastwest;rounded=0;shadow=0;html=0;" parent="7dbB2nxjPek2u6hRPhPS-37" vertex="1"><mxGeometry y="130" width="160" height="26" as="geometry"/></mxCell><mxCell id="7dbB2nxjPek2u6hRPhPS-46" value="post: Post" style="text;align=left;verticalAlign=top;spacingLeft=4;spacingRight=4;overflow=hidden;rotatable=0;points=[[0,0.5],[1,0.5]];portConstraint=eastwest;rounded=0;shadow=0;html=0;" parent="7dbB2nxjPek2u6hRPhPS-37" vertex="1"><mxGeometry y="156" width="160" height="26" as="geometry"/></mxCell><mxCell id="0" value="Create" style="rhombus;whiteSpace=wrap;html=1;" vertex="1" parent="WIyWlLk6GJQsqaUBKTNV-1"><mxGeometry x="80" y="80" width="80" height="80" as="geometry"/></mxCell><mxCell id="3" value="" style="endArrow=none;html=1;entryX=0.5;entryY=1;entryDx=0;entryDy=0;exitX=0.5;exitY=0;exitDx=0;exitDy=0;" edge="1" parent="WIyWlLk6GJQsqaUBKTNV-1" source="7dbB2nxjPek2u6hRPhPS-18" target="0"><mxGeometry width="50" height="50" relative="1" as="geometry"><mxPoint x="90" y="260" as="sourcePoint"/><mxPoint x="140" y="210" as="targetPoint"/></mxGeometry></mxCell><mxCell id="4" value="" style="endArrow=none;html=1;exitX=1;exitY=0.5;exitDx=0;exitDy=0;entryX=0.006;entryY=0.231;entryDx=0;entryDy=0;entryPerimeter=0;" edge="1" parent="WIyWlLk6GJQsqaUBKTNV-1" source="0" target="7dbB2nxjPek2u6hRPhPS-2"><mxGeometry width="50" height="50" relative="1" as="geometry"><mxPoint x="230" y="200" as="sourcePoint"/><mxPoint x="400" y="100" as="targetPoint"/></mxGeometry></mxCell><mxCell id="5" value="0, N" style="text;html=1;align=center;verticalAlign=middle;resizable=0;points=[];autosize=1;" vertex="1" parent="WIyWlLk6GJQsqaUBKTNV-1"><mxGeometry x="120" y="250" width="40" height="20" as="geometry"/></mxCell><mxCell id="6" value="1, 1" style="text;html=1;align=center;verticalAlign=middle;resizable=0;points=[];autosize=1;" vertex="1" parent="WIyWlLk6GJQsqaUBKTNV-1"><mxGeometry x="340" y="130" width="40" height="20" as="geometry"/></mxCell><mxCell id="9" value="Create" style="rhombus;whiteSpace=wrap;html=1;" vertex="1" parent="WIyWlLk6GJQsqaUBKTNV-1"><mxGeometry x="280" y="399" width="80" height="80" as="geometry"/></mxCell><mxCell id="10" value="" style="endArrow=none;html=1;entryX=0;entryY=0.5;entryDx=0;entryDy=0;" edge="1" parent="WIyWlLk6GJQsqaUBKTNV-1" source="7dbB2nxjPek2u6hRPhPS-23" target="9"><mxGeometry width="50" height="50" relative="1" as="geometry"><mxPoint x="280" y="550" as="sourcePoint"/><mxPoint x="260" y="460" as="targetPoint"/></mxGeometry></mxCell><mxCell id="11" value="" style="endArrow=none;html=1;exitX=1;exitY=0.5;exitDx=0;exitDy=0;entryX=0;entryY=0.5;entryDx=0;entryDy=0;" edge="1" parent="WIyWlLk6GJQsqaUBKTNV-1" source="9" target="7dbB2nxjPek2u6hRPhPS-5"><mxGeometry width="50" height="50" relative="1" as="geometry"><mxPoint x="240" y="340" as="sourcePoint"/><mxPoint x="380" y="360" as="targetPoint"/></mxGeometry></mxCell><mxCell id="12" value="0, N" style="text;html=1;align=center;verticalAlign=middle;resizable=0;points=[];autosize=1;" vertex="1" parent="WIyWlLk6GJQsqaUBKTNV-1"><mxGeometry x="210" y="410" width="40" height="20" as="geometry"/></mxCell><mxCell id="13" value="1, 1" style="text;html=1;align=center;verticalAlign=middle;resizable=0;points=[];autosize=1;" vertex="1" parent="WIyWlLk6GJQsqaUBKTNV-1"><mxGeometry x="373.5" y="410" width="40" height="20" as="geometry"/></mxCell><mxCell id="14" value="Has" style="rhombus;whiteSpace=wrap;html=1;" vertex="1" parent="WIyWlLk6GJQsqaUBKTNV-1"><mxGeometry x="670" y="440" width="80" height="80" as="geometry"/></mxCell><mxCell id="15" value="Has" style="rhombus;whiteSpace=wrap;html=1;" vertex="1" parent="WIyWlLk6GJQsqaUBKTNV-1"><mxGeometry x="440" y="240" width="80" height="80" as="geometry"/></mxCell><mxCell id="zkfFHV4jXpPFQw0GAbJ--17" value="Post" style="swimlane;fontStyle=0;align=center;verticalAlign=top;childLayout=stackLayout;horizontal=1;startSize=26;horizontalStack=0;resizeParent=1;resizeLast=0;collapsible=1;marginBottom=0;rounded=0;shadow=0;strokeWidth=1;" parent="WIyWlLk6GJQsqaUBKTNV-1" vertex="1"><mxGeometry x="420" y="10" width="160" height="160" as="geometry"><mxRectangle x="550" y="140" width="160" height="26" as="alternateBounds"/></mxGeometry></mxCell><mxCell id="zkfFHV4jXpPFQw0GAbJ--18" value="postID: long" style="text;align=left;verticalAlign=top;spacingLeft=4;spacingRight=4;overflow=hidden;rotatable=0;points=[[0,0.5],[1,0.5]];portConstraint=eastwest;" parent="zkfFHV4jXpPFQw0GAbJ--17" vertex="1"><mxGeometry y="26" width="160" height="26" as="geometry"/></mxCell><mxCell id="zkfFHV4jXpPFQw0GAbJ--19" value="name: String" style="text;align=left;verticalAlign=top;spacingLeft=4;spacingRight=4;overflow=hidden;rotatable=0;points=[[0,0.5],[1,0.5]];portConstraint=eastwest;rounded=0;shadow=0;html=0;" parent="zkfFHV4jXpPFQw0GAbJ--17" vertex="1"><mxGeometry y="52" width="160" height="26" as="geometry"/></mxCell><mxCell id="zkfFHV4jXpPFQw0GAbJ--20" value="description: String" style="text;align=left;verticalAlign=top;spacingLeft=4;spacingRight=4;overflow=hidden;rotatable=0;points=[[0,0.5],[1,0.5]];portConstraint=eastwest;rounded=0;shadow=0;html=0;" parent="zkfFHV4jXpPFQw0GAbJ--17" vertex="1"><mxGeometry y="78" width="160" height="26" as="geometry"/></mxCell><mxCell id="7dbB2nxjPek2u6hRPhPS-2" value="creationDate: Date" style="text;align=left;verticalAlign=top;spacingLeft=4;spacingRight=4;overflow=hidden;rotatable=0;points=[[0,0.5],[1,0.5]];portConstraint=eastwest;rounded=0;shadow=0;html=0;" parent="zkfFHV4jXpPFQw0GAbJ--17" vertex="1"><mxGeometry y="104" width="160" height="26" as="geometry"/></mxCell><mxCell id="zkfFHV4jXpPFQw0GAbJ--22" value="voteCount: int" style="text;align=left;verticalAlign=top;spacingLeft=4;spacingRight=4;overflow=hidden;rotatable=0;points=[[0,0.5],[1,0.5]];portConstraint=eastwest;rounded=0;shadow=0;html=0;" parent="zkfFHV4jXpPFQw0GAbJ--17" vertex="1"><mxGeometry y="130" width="160" height="26" as="geometry"/></mxCell><mxCell id="16" value="" style="endArrow=none;html=1;exitX=0.5;exitY=0;exitDx=0;exitDy=0;" edge="1" parent="WIyWlLk6GJQsqaUBKTNV-1" source="15"><mxGeometry width="50" height="50" relative="1" as="geometry"><mxPoint x="540" y="230" as="sourcePoint"/><mxPoint x="480" y="170" as="targetPoint"/></mxGeometry></mxCell><mxCell id="17" value="" style="endArrow=none;html=1;entryX=0.5;entryY=1;entryDx=0;entryDy=0;exitX=0.38;exitY=0;exitDx=0;exitDy=0;exitPerimeter=0;" edge="1" parent="WIyWlLk6GJQsqaUBKTNV-1" source="7dbB2nxjPek2u6hRPhPS-4" target="15"><mxGeometry width="50" height="50" relative="1" as="geometry"><mxPoint x="410" y="300" as="sourcePoint"/><mxPoint x="390" y="280" as="targetPoint"/></mxGeometry></mxCell><mxCell id="18" value="0, N" style="text;html=1;align=center;verticalAlign=middle;resizable=0;points=[];autosize=1;" vertex="1" parent="WIyWlLk6GJQsqaUBKTNV-1"><mxGeometry x="490" y="180" width="40" height="20" as="geometry"/></mxCell><mxCell id="19" value="1, 1" style="text;html=1;align=center;verticalAlign=middle;resizable=0;points=[];autosize=1;" vertex="1" parent="WIyWlLk6GJQsqaUBKTNV-1"><mxGeometry x="490" y="310" width="40" height="20" as="geometry"/></mxCell><mxCell id="20" value="" style="endArrow=none;html=1;entryX=0.5;entryY=0;entryDx=0;entryDy=0;exitX=1;exitY=0.5;exitDx=0;exitDy=0;" edge="1" parent="WIyWlLk6GJQsqaUBKTNV-1" source="7dbB2nxjPek2u6hRPhPS-5" target="14"><mxGeometry width="50" height="50" relative="1" as="geometry"><mxPoint x="660" y="390" as="sourcePoint"/><mxPoint x="640" y="350" as="targetPoint"/></mxGeometry></mxCell><mxCell id="7dbB2nxjPek2u6hRPhPS-4" value="Comment" style="swimlane;fontStyle=0;align=center;verticalAlign=top;childLayout=stackLayout;horizontal=1;startSize=26;horizontalStack=0;resizeParent=1;resizeLast=0;collapsible=1;marginBottom=0;rounded=0;shadow=0;strokeWidth=1;" parent="WIyWlLk6GJQsqaUBKTNV-1" vertex="1"><mxGeometry x="420" y="400" width="158" height="170" as="geometry"><mxRectangle x="550" y="140" width="160" height="26" as="alternateBounds"/></mxGeometry></mxCell><mxCell id="7dbB2nxjPek2u6hRPhPS-5" value="commentID: long" style="text;align=left;verticalAlign=top;spacingLeft=4;spacingRight=4;overflow=hidden;rotatable=0;points=[[0,0.5],[1,0.5]];portConstraint=eastwest;" parent="7dbB2nxjPek2u6hRPhPS-4" vertex="1"><mxGeometry y="26" width="158" height="26" as="geometry"/></mxCell><mxCell id="7dbB2nxjPek2u6hRPhPS-6" value="content: String" style="text;align=left;verticalAlign=top;spacingLeft=4;spacingRight=4;overflow=hidden;rotatable=0;points=[[0,0.5],[1,0.5]];portConstraint=eastwest;rounded=0;shadow=0;html=0;" parent="7dbB2nxjPek2u6hRPhPS-4" vertex="1"><mxGeometry y="52" width="158" height="26" as="geometry"/></mxCell><mxCell id="7dbB2nxjPek2u6hRPhPS-7" value="post: Post" style="text;align=left;verticalAlign=top;spacingLeft=4;spacingRight=4;overflow=hidden;rotatable=0;points=[[0,0.5],[1,0.5]];portConstraint=eastwest;rounded=0;shadow=0;html=0;" parent="7dbB2nxjPek2u6hRPhPS-4" vertex="1"><mxGeometry y="78" width="158" height="26" as="geometry"/></mxCell><mxCell id="7dbB2nxjPek2u6hRPhPS-9" value="creationDate: Date" style="text;align=left;verticalAlign=top;spacingLeft=4;spacingRight=4;overflow=hidden;rotatable=0;points=[[0,0.5],[1,0.5]];portConstraint=eastwest;rounded=0;shadow=0;html=0;" parent="7dbB2nxjPek2u6hRPhPS-4" vertex="1"><mxGeometry y="104" width="158" height="26" as="geometry"/></mxCell><mxCell id="7dbB2nxjPek2u6hRPhPS-43" value="voteCount: int" style="text;align=left;verticalAlign=top;spacingLeft=4;spacingRight=4;overflow=hidden;rotatable=0;points=[[0,0.5],[1,0.5]];portConstraint=eastwest;rounded=0;shadow=0;html=0;" parent="7dbB2nxjPek2u6hRPhPS-4" vertex="1"><mxGeometry y="130" width="158" height="26" as="geometry"/></mxCell><mxCell id="7dbB2nxjPek2u6hRPhPS-18" value="User" style="swimlane;fontStyle=0;align=center;verticalAlign=top;childLayout=stackLayout;horizontal=1;startSize=26;horizontalStack=0;resizeParent=1;resizeLast=0;collapsible=1;marginBottom=0;rounded=0;shadow=0;strokeWidth=1;" parent="WIyWlLk6GJQsqaUBKTNV-1" vertex="1"><mxGeometry x="40" y="320" width="160" height="160" as="geometry"><mxRectangle x="550" y="140" width="160" height="26" as="alternateBounds"/></mxGeometry></mxCell><mxCell id="7dbB2nxjPek2u6hRPhPS-19" value="userID: long" style="text;align=left;verticalAlign=top;spacingLeft=4;spacingRight=4;overflow=hidden;rotatable=0;points=[[0,0.5],[1,0.5]];portConstraint=eastwest;" parent="7dbB2nxjPek2u6hRPhPS-18" vertex="1"><mxGeometry y="26" width="160" height="26" as="geometry"/></mxCell><mxCell id="7dbB2nxjPek2u6hRPhPS-20" value="username: String" style="text;align=left;verticalAlign=top;spacingLeft=4;spacingRight=4;overflow=hidden;rotatable=0;points=[[0,0.5],[1,0.5]];portConstraint=eastwest;rounded=0;shadow=0;html=0;" parent="7dbB2nxjPek2u6hRPhPS-18" vertex="1"><mxGeometry y="52" width="160" height="26" as="geometry"/></mxCell><mxCell id="7dbB2nxjPek2u6hRPhPS-21" value="password: String" style="text;align=left;verticalAlign=top;spacingLeft=4;spacingRight=4;overflow=hidden;rotatable=0;points=[[0,0.5],[1,0.5]];portConstraint=eastwest;rounded=0;shadow=0;html=0;" parent="7dbB2nxjPek2u6hRPhPS-18" vertex="1"><mxGeometry y="78" width="160" height="26" as="geometry"/></mxCell><mxCell id="7dbB2nxjPek2u6hRPhPS-23" value="creationDate: Date" style="text;align=left;verticalAlign=top;spacingLeft=4;spacingRight=4;overflow=hidden;rotatable=0;points=[[0,0.5],[1,0.5]];portConstraint=eastwest;rounded=0;shadow=0;html=0;" parent="7dbB2nxjPek2u6hRPhPS-18" vertex="1"><mxGeometry y="104" width="160" height="26" as="geometry"/></mxCell><mxCell id="7dbB2nxjPek2u6hRPhPS-25" value="email: String" style="text;align=left;verticalAlign=top;spacingLeft=4;spacingRight=4;overflow=hidden;rotatable=0;points=[[0,0.5],[1,0.5]];portConstraint=eastwest;rounded=0;shadow=0;html=0;" parent="7dbB2nxjPek2u6hRPhPS-18" vertex="1"><mxGeometry y="130" width="160" height="26" as="geometry"/></mxCell><mxCell id="21" value="" style="endArrow=none;html=1;entryX=0.5;entryY=1;entryDx=0;entryDy=0;" edge="1" parent="WIyWlLk6GJQsqaUBKTNV-1" target="14"><mxGeometry width="50" height="50" relative="1" as="geometry"><mxPoint x="578" y="520" as="sourcePoint"/><mxPoint x="690" y="600" as="targetPoint"/></mxGeometry></mxCell><mxCell id="22" value="0, N" style="text;html=1;align=center;verticalAlign=middle;resizable=0;points=[];autosize=1;" vertex="1" parent="WIyWlLk6GJQsqaUBKTNV-1"><mxGeometry x="590" y="410" width="40" height="20" as="geometry"/></mxCell><mxCell id="23" value="0, N" style="text;html=1;align=center;verticalAlign=middle;resizable=0;points=[];autosize=1;" vertex="1" parent="WIyWlLk6GJQsqaUBKTNV-1"><mxGeometry x="590" y="530" width="40" height="20" as="geometry"/></mxCell></root></mxGraphModel></diagram></mxfile>